<?xml version="1.0" encoding="UTF-8" standalone="no"?>
<!DOCTYPE svg PUBLIC "-//W3C//DTD SVG 1.1//EN" "http://www.w3.org/Graphics/SVG/1.1/DTD/svg11.dtd">
<svg width="100%" height="100%" viewBox="0 0 200 80" version="1.1" xmlns="http://www.w3.org/2000/svg" xmlns:xlink="http://www.w3.org/1999/xlink" xml:space="preserve" xmlns:serif="http://www.serif.com/" style="fill-rule:evenodd;clip-rule:evenodd;stroke-linejoin:round;stroke-miterlimit:2;">
    <g transform="matrix(1,0,0,1,-1089.15499,-0.240181)">
        <g id="brand" transform="matrix(0.078125,0,0,0.055556,885.24874,0.240181)">
            <rect x="2610" y="0" width="2560" height="1440" style="fill:none;"/>
            <g transform="matrix(13.559027,0,0,19.067381,-32846.662502,-499.559276)">
                <path d="M2698.3,59.733L2700.253,49.655L2697.644,49.655L2695.198,62.248L2702.589,62.248L2703.081,59.733L2698.3,59.733Z" style="fill-rule:nonzero;"/>
                <path d="M2713.269,52.147L2713.753,49.655L2706.464,49.655L2704.019,62.248L2711.308,62.248L2711.8,59.733L2707.112,59.733L2707.612,57.131L2711.597,57.131L2712.089,54.608L2708.105,54.608L2708.581,52.147L2713.269,52.147Z" style="fill-rule:nonzero;"/>
                <path d="M2718.706,62.53C2722.237,62.709 2725.362,59.983 2725.933,56.077C2726.472,52.389 2724.456,49.639 2721.073,49.467C2717.526,49.287 2714.409,52.053 2713.855,55.975C2713.331,59.655 2715.362,62.358 2718.706,62.53ZM2719.167,59.991C2717.253,59.952 2716.073,58.225 2716.456,55.983C2716.847,53.67 2718.698,51.952 2720.605,51.991C2722.48,52.022 2723.73,53.733 2723.331,56.03C2722.941,58.272 2721.136,60.037 2719.167,59.991Z" style="fill-rule:nonzero;"/>
                <path d="M2735.956,49.623L2734.589,56.639L2729.112,49.42L2728.878,49.42L2726.378,62.264L2728.972,62.264L2730.331,55.241L2735.823,62.483L2736.05,62.483L2738.55,49.623L2735.956,49.623Z" style="fill-rule:nonzero;"/>
                <path d="M2741.019,62.248L2743.605,62.248L2744.651,56.842L2749.706,49.655L2746.636,49.655L2743.745,54.03L2742.511,49.655L2739.808,49.655L2742.066,56.842L2741.019,62.248Z" style="fill-rule:nonzero;"/>
                <path d="M2695.198,78.248L2697.8,78.248L2700.245,65.655L2697.644,65.655L2695.198,78.248Z" style="fill-rule:nonzero;"/>
                <path d="M2709.566,65.623L2708.198,72.639L2702.722,65.42L2702.487,65.42L2699.987,78.264L2702.581,78.264L2703.941,71.241L2709.433,78.483L2709.659,78.483L2712.159,65.623L2709.566,65.623Z" style="fill-rule:nonzero;"/>
                <path d="M2715.87,78.498C2718.386,78.498 2720.159,76.998 2720.55,74.952C2720.862,73.342 2720.191,72.147 2718.214,70.952C2717.206,70.342 2716.23,69.944 2716.37,69.053C2716.464,68.428 2717.066,67.873 2717.823,67.873C2718.55,67.873 2719.261,68.311 2719.472,69.1L2721.519,67.702C2721.191,66.397 2719.862,65.389 2718.175,65.389C2716.073,65.389 2714.253,66.655 2713.878,68.522C2713.448,70.662 2714.706,71.702 2715.925,72.459C2716.808,73.006 2718.159,73.748 2717.98,74.787C2717.839,75.569 2716.948,75.952 2716.222,75.952C2715.284,75.952 2714.386,75.42 2713.784,74.342L2711.73,75.748C2712.284,77.342 2713.784,78.498 2715.87,78.498Z" style="fill-rule:nonzero;"/>
                <path d="M2721.448,78.248L2724.05,78.248L2726.495,65.655L2723.894,65.655L2721.448,78.248Z" style="fill-rule:nonzero;"/>
                <path d="M2733.425,71.178L2732.972,73.514L2735.839,73.514C2735.573,74.17 2734.441,75.952 2732.425,75.952C2730.503,75.952 2729.081,74.358 2729.519,71.967C2729.956,69.561 2731.98,67.959 2733.8,67.959C2735.011,67.959 2735.776,68.67 2736.48,69.702L2738.276,67.6C2737.441,66.397 2735.987,65.42 2734.448,65.397C2730.55,65.397 2727.526,68.1 2726.917,71.967C2726.323,75.717 2728.355,78.498 2732.073,78.498C2735.62,78.498 2738.292,75.975 2738.98,72.241C2739.011,72.069 2739.073,71.709 2739.112,71.178L2733.425,71.178Z" style="fill-rule:nonzero;"/>
                <path d="M2748.495,65.655L2747.519,70.694L2743.526,70.694L2744.503,65.655L2741.901,65.655L2739.456,78.248L2742.058,78.248L2743.034,73.202L2747.026,73.202L2746.05,78.248L2748.651,78.248L2751.097,65.655L2748.495,65.655Z" style="fill-rule:nonzero;"/>
                <path d="M2760.909,65.655L2752.526,65.655L2752.042,68.162L2754.933,68.162L2752.972,78.248L2755.581,78.248L2757.542,68.162L2760.425,68.162L2760.909,65.655Z" style="fill-rule:nonzero;"/>
                <g transform="matrix(0.944021,0,0,0.944021,219.747254,63.499374)">
                    <path d="M2699.132,7.404L2700.639,7.404L2698.78,11.428L2698.78,12.928C2698.78,13.808 2698.816,14.732 2698.889,15.701L2697.475,15.701L2697.319,14.467C2696.548,15.415 2695.647,15.888 2694.616,15.888C2694.027,15.888 2693.535,15.748 2693.139,15.467C2692.744,15.185 2692.43,14.81 2692.198,14.342C2691.966,13.873 2691.85,13.261 2691.85,12.506C2691.85,11.037 2692.257,9.788 2693.069,8.76C2693.882,7.731 2694.853,7.217 2695.983,7.217C2697.061,7.217 2697.879,7.782 2698.436,8.912L2699.132,7.404ZM2693.249,12.615C2693.249,13.329 2693.41,13.86 2693.733,14.209C2694.056,14.558 2694.457,14.732 2694.936,14.732C2695.723,14.732 2696.396,14.29 2696.956,13.404C2697.516,12.519 2697.796,11.56 2697.796,10.529C2697.796,9.915 2697.646,9.403 2697.346,8.994C2697.047,8.585 2696.629,8.381 2696.092,8.381C2695.27,8.381 2694.59,8.832 2694.053,9.736C2693.517,10.64 2693.249,11.599 2693.249,12.615Z" style="fill:rgb(217,129,45);fill-rule:nonzero;"/>
                </g>
            </g>
            <g transform="matrix(0.782326,0,0,1.100146,3657.785685,537.232392)">
                <g transform="matrix(1,0,0,1,-63.269659,244.2498)">
                    <path d="M0,-153.682C-15.75,-214.682 -60.654,-266.698 -60.654,-266.698C-44.175,-261.875 -24.681,-244.792 -24.681,-244.792C-24.681,-244.792 -36.738,-322.768 -90.599,-375.824C-152.252,-436.557 -212.386,-428.88 -212.386,-428.88C-206.155,-433.703 -178.422,-444.957 -178.422,-444.957C-178.422,-444.957 -213.993,-464.25 -261.422,-464.25C-308.851,-464.25 -335.25,-440.938 -335.25,-440.938C-335.25,-440.938 -361.648,-464.25 -409.077,-464.25C-456.506,-464.25 -492.077,-444.957 -492.077,-444.957C-492.077,-444.957 -464.344,-433.703 -458.113,-428.88C-458.113,-428.88 -518.247,-436.557 -579.9,-375.824C-633.76,-322.768 -645.818,-244.792 -645.818,-244.792C-645.818,-244.792 -626.324,-261.875 -609.845,-266.698C-609.845,-266.698 -654.75,-214.682 -670.5,-153.682C-686.25,-92.682 -667.5,-33.932 -661.75,-12.932C-661.75,-12.932 -658,-21.182 -656.25,-23.682C-656.25,-23.682 -656,25.568 -626.5,72.318C-597,119.068 -571,136.068 -571,136.068C-571,136.068 -572,122.068 -571,118.318C-571,118.318 -550.75,159.318 -519.5,184.068C-488.25,208.818 -473.5,220.318 -454,233.068C-454,233.068 -455.25,217.068 -455.75,213.068C-455.75,213.068 -434.75,227.818 -402,251.818C-369.25,275.818 -339.5,303.068 -335.25,310.568C-331,303.068 -301.25,275.818 -268.5,251.818C-235.75,227.818 -214.75,213.068 -214.75,213.068C-215.25,217.068 -216.5,233.068 -216.5,233.068C-197,220.318 -182.25,208.818 -151,184.068C-119.75,159.318 -99.5,118.318 -99.5,118.318C-98.5,122.068 -99.5,136.068 -99.5,136.068C-99.5,136.068 -73.5,119.068 -44,72.318C-14.5,25.568 -14.25,-23.682 -14.25,-23.682C-12.5,-21.182 -8.75,-12.932 -8.75,-12.932C-3,-33.932 15.75,-92.682 0,-153.682" style="fill:rgb(61,47,37);fill-rule:nonzero;"/>
                </g>
                <g transform="matrix(1,0,0,1,-580.767759,409.1515)">
                    <path d="M25.209,-9.922C26.078,-6.581 27.179,-3.241 28.582,0C28.582,0 -16.75,-24.017 -30.418,-85C-38.625,-121.617 -22.959,-164.625 0,-199.26C1.285,-201.198 2.588,-203.116 3.915,-205C24.248,-233.842 21.582,-263 21.582,-263C21.582,-263 35.748,-241 34.498,-214C33.248,-187 23.248,-180.315 13.582,-147.324C3.915,-114.333 4.582,-102.667 9.582,-74.667C9.582,-74.667 12.582,-110.667 25.915,-134.667C39.248,-158.667 46.582,-168.833 46.582,-168.833C46.582,-168.833 41.242,-133.819 50.476,-100C62.582,-55.667 68.915,-54.333 84.582,-33C84.582,-33 77.248,-53 74.582,-68.667C71.915,-84.333 75.248,-102 75.248,-102C75.248,-102 81.248,-71 103.915,-49.333C126.582,-27.667 165.248,0.667 182.248,60.333C199.248,0.667 237.915,-27.667 260.582,-49.333C283.248,-71 289.248,-102 289.248,-102C289.248,-102 292.582,-84.333 289.915,-68.667C287.248,-53 279.915,-33 279.915,-33C295.582,-54.333 301.915,-55.667 314.02,-100C323.254,-133.819 317.915,-168.833 317.915,-168.833C317.915,-168.833 325.248,-158.667 338.582,-134.667C351.915,-110.667 354.915,-74.667 354.915,-74.667C359.915,-102.667 360.582,-114.333 350.915,-147.324C341.248,-180.315 331.248,-187 329.998,-214C328.748,-241 342.915,-263 342.915,-263C342.915,-263 340.248,-233.842 360.582,-205C361.91,-203.116 363.213,-201.198 364.497,-199.26C387.456,-164.625 403.122,-121.617 394.915,-85C381.246,-24.017 335.915,0 335.915,0C337.318,-3.241 338.419,-6.581 339.288,-9.922C344.409,-29.602 341.248,-49.333 341.248,-49.333C338.185,-42.729 334.614,-36.372 330.67,-30.258C307.144,6.216 269.885,33.824 241.867,50.667C222.269,62.448 204.765,79.008 193.872,90.398C186.581,98.022 182.248,103.333 182.248,103.333C182.248,103.333 177.916,98.022 170.625,90.398C159.732,79.008 142.227,62.448 122.63,50.667C94.612,33.824 57.353,6.216 33.827,-30.258C29.883,-36.372 26.311,-42.729 23.248,-49.333C23.248,-49.333 20.09,-29.602 25.209,-9.922Z" style="fill:rgb(129,64,29);"/>
                </g>
                <g transform="matrix(1,0,0,1,-490.688659,-108.3784)">
                    <path d="M162.874,22.183C158.972,24.666 125.976,41.519 106.108,58.371C106.108,58.371 106.583,54.516 107.84,48.337C109.306,41.13 111.837,30.76 115.925,19.631C121.894,3.38 131.179,-14.477 145.312,-26.424C177.42,-53.565 196.895,-55.634 240.751,-48.421C247.935,-47.239 254.67,-45.35 260.697,-43.218C277.293,-37.347 288.471,-29.617 288.471,-29.617C288.471,-29.617 237.474,-31.468 207.401,-10.635C175.647,11.362 166.777,19.699 162.874,22.183ZM21.465,22.183C17.562,19.699 8.692,11.362 -23.062,-10.635C-53.135,-31.468 -104.132,-29.617 -104.132,-29.617C-104.132,-29.617 -92.955,-37.347 -76.358,-43.218C-70.331,-45.35 -63.596,-47.239 -56.412,-48.421C-12.556,-55.634 6.918,-53.565 39.027,-26.424C53.16,-14.477 62.445,3.38 68.414,19.631C72.502,30.76 75.032,41.13 76.499,48.337C77.756,54.516 78.231,58.371 78.231,58.371C58.363,41.519 25.367,24.666 21.465,22.183Z" style="fill:rgb(241,175,78);"/>
                </g>
                <g transform="matrix(1,0,0,1,-490.688659,-101.0966)">
                    <path d="M21.465,14.901C17.562,12.417 8.692,4.08 -23.062,-17.917C-53.135,-38.75 -104.132,-36.899 -104.132,-36.899C-104.132,-36.899 -92.955,-44.629 -76.358,-50.5C-56.078,-53.554 -26.038,-54.892 0,-43.285C36.423,-27.048 54.561,-8.999 68.414,12.349C72.502,23.478 75.032,33.848 76.499,41.055C77.756,47.234 78.231,51.09 78.231,51.09C58.363,34.238 25.367,17.384 21.465,14.901Z" style="fill:rgb(217,129,45);"/>
                </g>
                <g transform="matrix(1,0,0,1,-414.189659,-104.899)">
                    <path d="M0,44.857C-5.468,34.97 -10.369,30.741 -27.006,15.244C-49.003,-5.245 -76.499,-10.035 -76.499,-10.035C-69.936,-5.777 -56.453,9.301 -55.034,18.704C-51.132,21.187 -18.136,38.04 1.732,54.892C1.732,54.892 1.257,51.036 0,44.857" style="fill:rgb(129,64,29);fill-rule:nonzero;"/>
                </g>
                <g transform="matrix(1,0,0,1,-619.123159,-96.5352)">
                    <path d="M102.02,23.594C91.805,25.482 79.118,37.02 79.118,37.02C79.118,37.02 76.457,32.337 57.267,19.032C38.078,5.728 26.964,6.26 11.53,15.13C-3.904,23.999 -4.79,48.48 -4.79,48.48C-7.407,60.156 -4.77,75.367 -1.998,86.348C-5.212,83.165 -9.13,78.432 -13.837,71.542C-23.989,56.682 -25.957,38.041 -20.366,20.07C-19.216,16.372 -17.752,12.701 -15.966,9.098C-5.5,-12.012 21.287,-23.011 53.396,-13.077C85.505,-3.143 103.954,23.353 103.954,23.353C103.322,23.389 102.676,23.473 102.02,23.594ZM339.188,23.594C338.532,23.473 337.886,23.389 337.254,23.353C337.254,23.353 355.703,-3.143 387.812,-13.077C419.921,-23.011 446.708,-12.012 457.174,9.098C458.96,12.701 460.424,16.372 461.574,20.07C467.165,38.041 465.197,56.682 455.045,71.542C450.338,78.432 446.42,83.165 443.206,86.348C445.978,75.367 448.615,60.156 445.998,48.48C445.998,48.48 445.112,23.999 429.678,15.13C414.244,6.26 403.13,5.728 383.941,19.032C364.751,32.337 362.09,37.02 362.09,37.02C362.09,37.02 349.403,25.482 339.188,23.594Z" style="fill:rgb(241,175,78);"/>
                </g>
                <g transform="matrix(1,0,0,1,-621.121259,-57.1036)">
                    <path d="M0,46.916C5.143,52.009 8.479,53.124 10.335,52.687C13.352,51.978 16.544,46.833 21.512,43.641C26.479,40.447 30.381,39.383 30.381,39.383C30.381,39.383 20.27,29.981 20.27,9.935C20.27,9.935 31.8,14.193 43.331,12.419C43.331,12.419 35.703,7.807 30.559,3.372C25.414,-1.063 17.432,-6.208 9.626,-3.724C1.82,-1.241 -2.792,9.048 -2.792,9.048C-5.409,20.724 -2.771,35.936 0,46.916" style="fill:rgb(129,64,29);fill-rule:nonzero;"/>
                </g>
                <g transform="matrix(1,0,0,1,-541.423959,-30.5874)">
                    <path d="M0,-60.043C-12.772,-66.429 -41.865,-80.443 -77.699,-65.365C-87.716,-61.15 -94.084,-53.997 -98.065,-45.877C-103.656,-27.906 -101.688,-9.266 -91.536,5.594C-86.829,12.484 -82.911,17.217 -79.697,20.4C-82.469,9.419 -85.106,-5.792 -82.489,-17.468C-82.489,-17.468 -81.603,-41.949 -66.169,-50.818C-50.735,-59.688 -39.621,-60.22 -20.432,-46.916C-1.242,-33.611 1.419,-28.928 1.419,-28.928C1.419,-28.928 14.105,-40.466 24.32,-42.354C17.173,-48.482 7.289,-56.398 0,-60.043" style="fill:rgb(217,129,45);fill-rule:nonzero;"/>
                </g>
                <g transform="matrix(1,0,0,1,-660.884959,65.5024)">
                    <path d="M-49.155,74.435C-47.049,11.47 -16.854,-23.641 -3.043,-35.578C3.804,-41.497 11.683,-46.377 17.891,-49.796C24.205,-53.274 28.791,-55.24 28.791,-55.24C14.044,-27.386 0,-14.98 0,-14.98C11.001,-21.768 54.07,-47.516 72.094,-61.56C90.117,-75.605 109.312,-89.415 109.312,-89.415C109.312,-89.415 86.606,-58.517 64.369,-25.279C42.132,7.959 17.554,20.365 -5.15,33.005C-27.855,45.645 -49.155,74.435 -49.155,74.435ZM415.42,-89.415C415.42,-89.415 434.615,-75.605 452.638,-61.56C470.662,-47.516 513.731,-21.768 524.732,-14.98C524.732,-14.98 510.688,-27.386 495.941,-55.24C495.941,-55.24 500.526,-53.274 506.84,-49.796C513.049,-46.377 520.928,-41.497 527.775,-35.578C541.586,-23.641 571.781,11.47 573.887,74.435C573.887,74.435 552.586,45.645 529.881,33.005C507.176,20.365 482.599,7.959 460.362,-25.279C438.125,-58.517 415.42,-89.415 415.42,-89.415Z" style="fill:rgb(217,129,45);"/>
                </g>
                <g transform="matrix(1,0,0,1,-594.820459,92.8892)">
                    <path d="M0,-69.753C-12.349,-55.475 -42.189,-28.088 -62.788,-16.151C-83.386,-4.213 -107.027,14.981 -115.22,47.048C-115.22,47.048 -93.919,18.258 -71.214,5.618C-48.51,-7.022 -23.932,-19.428 -1.695,-52.666C20.542,-85.904 43.247,-116.801 43.247,-116.801C33.884,-108.609 12.35,-84.031 0,-69.753" style="fill:rgb(129,64,29);fill-rule:nonzero;"/>
                </g>
                <g transform="matrix(1,0,0,1,-579.832159,260.9702)">
                    <path d="M-101.245,4.096C-106.957,-7.237 -115.81,-28.645 -115.444,-51.935C-114.904,-86.201 -102.493,-114.531 -64.45,-145.02C-40.766,-164 -29.45,-171.9 -19.389,-181.896C-13.289,-187.956 -7.651,-194.787 0,-205.326C0,-205.326 -6.187,-175.238 -21.558,-146.638C-36.928,-118.039 -60.401,-89.438 -73.893,-74.329C-73.893,-74.329 -47.99,-87.549 -29.913,-106.167C-11.836,-124.784 0,-144.48 0,-144.48C0,-144.48 3.273,-107.164 -8.868,-79.415C-21.01,-51.665 -54.466,-13.352 -52.577,60.846C-52.577,60.846 -88.192,14.708 -80.638,-35.207C-80.638,-35.207 -94.128,-13.082 -96.557,12.55C-96.557,12.55 -98.554,9.438 -101.245,4.096ZM415.203,60.846C417.092,-13.352 383.636,-51.665 371.494,-79.415C359.353,-107.164 362.626,-144.48 362.626,-144.48C362.626,-144.48 374.462,-124.784 392.539,-106.167C410.616,-87.549 436.519,-74.329 436.519,-74.329C423.027,-89.438 399.554,-118.039 384.184,-146.638C368.813,-175.238 362.626,-205.326 362.626,-205.326C370.277,-194.787 375.915,-187.956 382.015,-181.896C392.076,-171.9 403.391,-164 427.075,-145.02C465.118,-114.531 477.529,-86.201 478.069,-51.935C478.435,-28.645 469.583,-7.237 463.871,4.096C461.18,9.438 459.183,12.55 459.183,12.55C456.754,-13.082 443.264,-35.207 443.264,-35.207C450.818,14.708 415.203,60.846 415.203,60.846Z" style="fill:rgb(129,64,29);"/>
                </g>
                <g transform="matrix(1,0,0,1,-580.767759,409.1515)">
                    <path d="M0,-199.26C-22.959,-164.625 -38.625,-121.617 -30.418,-85C-16.75,-24.017 28.582,0 28.582,0C27.179,-3.241 26.078,-6.581 25.209,-9.922C19.143,-20.205 13.035,-31.792 7.915,-44C-7.539,-80.853 -22.461,-125.279 0,-199.26" style="fill:rgb(217,129,45);fill-rule:nonzero;"/>
                </g>
                <g transform="matrix(1,0,0,1,-470.519659,414.5913)">
                    <path d="M0,-12.44C0,-12.44 11,6.56 16.334,26.227C16.334,26.227 -13,2.893 -30,-14.773C-47,-32.44 -76.666,-61.357 -85.666,-97.398C-85.666,-97.398 -91.725,-77.929 -76.421,-35.698C-52.895,0.776 -15.636,28.384 12.382,45.227C31.979,57.008 49.484,73.568 60.377,84.958C57.121,72.173 51.021,56.136 40,36.893C19,0.227 0,-12.44 0,-12.44" style="fill:rgb(217,129,45);fill-rule:nonzero;"/>
                </g>
                <g transform="matrix(1,0,0,1,-476.796059,53.8722)">
                    <path d="M0,-2.404C0,-2.404 6.107,3.103 6.909,4.906C7.71,6.708 -0.602,12.617 -9.213,10.614C-17.824,8.611 -27.612,-0.933 -21.129,-12.818C-19.928,-15.021 -16.623,-13.82 -14.82,-12.818C-13.019,-11.817 -14.02,-9.478 -14.02,-5.609C-14.02,-1.518 -11.216,3.003 -5.408,2.403C0.4,1.802 0,-2.404 0,-2.404" style="fill:rgb(217,129,45);fill-rule:nonzero;"/>
                </g>
                <g transform="matrix(1,0,0,1,-334.519659,353.0683)">
                    <path d="M0,-71.75C-11,-78.25 -44.25,-91.75 -64,-91.75C-83.75,-91.75 -117,-78.25 -128,-71.75C-139,-65.25 -139.75,-50 -135.25,-38.25C-135.25,-38.25 -127.5,-51.25 -122.5,-53.5C-122.5,-53.5 -128,-31.75 -116.25,-17.25C-104.5,-2.75 -96,3.25 -96,3.25C-96,3.25 -96.5,-14.75 -92.75,-21C-92.75,-21 -87.5,2.5 -64,20C-40.5,2.5 -35.25,-21 -35.25,-21C-31.5,-14.75 -32,3.25 -32,3.25C-32,3.25 -23.5,-2.75 -11.75,-17.25C0,-31.75 -5.5,-53.5 -5.5,-53.5C-0.5,-51.25 7.25,-38.25 7.25,-38.25C11.75,-50 11,-65.25 0,-71.75" style="fill:rgb(217,129,45);fill-rule:nonzero;"/>
                </g>
                <g transform="matrix(1,0,0,1,-356.519659,334.3183)">
                    <path d="M0,-45C-10.512,-55.513 -28.5,-57.5 -42,-57.5C-55.5,-57.5 -73.488,-55.513 -84,-45C-86.25,-42.75 -85.291,-22.218 -77.75,-11.25C-77.75,-11.25 -73.25,-25.25 -69.25,-28.5C-69.25,-28.5 -69,-13.5 -58.5,-2.5C-48,8.5 -42,12.5 -42,12.5C-42,12.5 -36,8.5 -25.5,-2.5C-15,-13.5 -14.75,-28.5 -14.75,-28.5C-10.75,-25.25 -6.25,-11.25 -6.25,-11.25C1.293,-22.218 2.25,-42.75 0,-45" style="fill:rgb(241,175,78);fill-rule:nonzero;"/>
                </g>
                <g transform="matrix(1,0,0,1,-369.019659,200.0683)">
                    <path d="M0,-37.25C-9.25,-37 -20.5,-34.25 -29.5,-34.25C-38.5,-34.25 -49.75,-37 -59,-37.25C-68.25,-37.5 -72.567,-35.75 -72.567,-35.75C-72.567,-35.75 -58.817,-35.5 -51.033,-28C-43.25,-20.5 -37.25,-10.25 -34.5,-6.25C-31.75,-2.25 -29.5,0.25 -29.5,0.25C-29.5,0.25 -27.25,-2.25 -24.5,-6.25C-21.75,-10.25 -15.75,-20.5 -7.966,-28C-0.182,-35.5 13.568,-35.75 13.568,-35.75C13.568,-35.75 9.25,-37.5 0,-37.25" style="fill:rgb(129,64,29);fill-rule:nonzero;"/>
                </g>
                <g transform="matrix(1,0,0,1,-301.769659,112.3178)">
                    <path d="M-149.436,40.307C-150.401,40.662 -151.33,40.988 -152.25,41.25C-157.5,42.75 -160.5,30.25 -160.5,30.25C-167.5,40.25 -163.5,55.75 -153.5,63.75C-143.5,71.75 -118.75,80.25 -109.75,97.5C-100.75,114.75 -105.75,125.25 -113.75,130C-121.75,134.75 -135.5,139.5 -152.25,146.25C-169,153 -176.25,148.75 -188.5,138.25C-194.518,133.092 -199.504,126.236 -202.107,115.742C-195.394,118.118 -186.631,119.322 -173.5,117.75C-156.096,115.667 -149.5,109.75 -149.5,109.75C-149.5,109.75 -165,110 -180.25,107.75C-187.383,106.698 -196.429,103.075 -204.039,99.516C-204.115,94.732 -203.836,89.41 -203.172,83.512L-202.25,84C-177,97.25 -152.25,93.25 -152.25,93.25C-152.25,93.25 -164.25,92.5 -178.418,84.75C-185.486,80.883 -194.11,74.527 -200.979,69.128C-193.22,28.175 -177,-0.5 -177,-0.5C-178.621,2.279 -186.887,9.349 -192.865,16.932C-193.341,17.536 -193.807,18.142 -194.25,18.75C-200.25,27 -211,48.75 -211,48.75C-211,48.75 -216.5,38 -226.5,26C-228.673,23.393 -231.377,20.832 -234.299,18.129C-244.826,8.393 -258.184,-3.192 -259.75,-25.5C-262.957,-71.206 -242.75,-121 -219,-148.25C-195.25,-175.5 -174.25,-175.5 -145,-159.75C-115.75,-144 -101,-124.5 -96.75,-124.5C-92.5,-124.5 -77.75,-144 -48.5,-159.75C-19.25,-175.5 1.75,-175.5 25.5,-148.25C49.25,-121 69.458,-71.206 66.25,-25.5C64.686,-3.192 51.327,8.393 40.801,18.129C37.879,20.832 35.173,23.393 33,26C23,38 17.5,48.75 17.5,48.75C17.5,48.75 6.75,27 0.75,18.75C0.308,18.142 -0.158,17.536 -0.634,16.932C-6.613,9.349 -14.879,2.279 -16.5,-0.5C-16.5,-0.5 -0.279,28.175 7.479,69.128C0.611,74.527 -8.012,80.883 -15.082,84.75C-29.25,92.5 -41.25,93.25 -41.25,93.25C-41.25,93.25 -16.5,97.25 8.75,84L9.673,83.512C10.336,89.41 10.616,94.732 10.539,99.516C2.93,103.075 -6.117,106.698 -13.25,107.75C-28.5,110 -44,109.75 -44,109.75C-44,109.75 -37.404,115.667 -20,117.75C-6.868,119.322 1.895,118.118 8.607,115.742C6.005,126.236 1.019,133.092 -5,138.25C-17.25,148.75 -24.5,153 -41.25,146.25C-58,139.5 -71.75,134.75 -79.75,130C-87.75,125.25 -92.75,114.75 -83.75,97.5C-74.75,80.25 -50,71.75 -40,63.75C-30,55.75 -26,40.25 -33,30.25C-33,30.25 -36,42.75 -41.25,41.25C-42.169,40.988 -43.098,40.662 -44.063,40.307C-48.611,38.637 -54.014,36.294 -63.5,36.5C-75,36.75 -81.25,41 -96.75,41C-112.25,41 -118.5,36.75 -130,36.5C-139.486,36.294 -144.887,38.637 -149.436,40.307ZM24,-67.25C38.25,-69 51,-80 51,-80C51,-80 44,-83.25 35,-87.5C26,-91.75 17,-90.25 -3,-87.5C-23,-84.75 -35.25,-67.75 -47.376,-66.75C-59.503,-65.75 -65.75,-85.75 -65.75,-85.75C-66,-56.25 -52.25,-50.25 -52.25,-50.25C-52.25,-50.25 -53,-44 -48.75,-28.25C-44.5,-12.5 -29,8.25 -29,8.25C-39,-25 -29,-34.25 -29,-34.25C-21.746,-33.295 -9.834,-33.956 1.07,-37.987C-3.373,-34.862 -9.251,-32.937 -12.75,-32.5C-18.75,-31.75 -25,-26.75 -17.75,-23.25C-7.273,-18.193 13,-20.5 24.5,-29.5C36,-38.5 35,-59.5 35,-59.5C35,-59.5 28,-65.5 24,-67.25ZM-190.5,-87.5C-210.5,-90.25 -219.5,-91.75 -228.5,-87.5C-237.5,-83.25 -244.5,-80 -244.5,-80C-244.5,-80 -231.75,-69 -217.5,-67.25C-221.5,-65.5 -228.5,-59.5 -228.5,-59.5C-228.5,-59.5 -229.5,-38.5 -218,-29.5C-206.5,-20.5 -186.225,-18.193 -175.75,-23.25C-168.5,-26.75 -174.75,-31.75 -180.75,-32.5C-184.248,-32.937 -190.126,-34.862 -194.57,-37.987C-183.665,-33.956 -171.752,-33.295 -164.5,-34.25C-164.5,-34.25 -154.5,-25 -164.5,8.25C-164.5,8.25 -149,-12.5 -144.75,-28.25C-140.5,-44 -141.25,-50.25 -141.25,-50.25C-141.25,-50.25 -127.5,-56.25 -127.75,-85.75C-127.75,-85.75 -133.996,-65.75 -146.123,-66.75C-158.25,-67.75 -170.5,-84.75 -190.5,-87.5Z" style="fill:rgb(217,129,45);"/>
                </g>
                <g transform="matrix(1,0,0,1,-318.019659,246.5681)">
                    <path d="M0,-79.159C0,-79.159 -6.25,-71.25 -21,-60.75C-35.75,-50.25 -49.25,-47 -54.5,-35.5C-59.75,-24 -58,-21.75 -47.75,-14.5C-37.5,-7.25 -25.75,-4 -15.5,-2C-5.25,0 8.981,-2 15.616,-10.75C15.616,-10.75 1.25,-8.75 -13.5,-13.5C-28.25,-18.25 -29.5,-21.5 -29.5,-24.5C-29.5,-27.5 -29,-23 -13.75,-28.25C1.5,-33.5 8.874,-37.5 8.874,-37.5C8.874,-37.5 -6.75,-35 -15.5,-36C-24.25,-37 -28.25,-36.947 -28.5,-40.223C-28.75,-43.5 -17.25,-46 -11,-52.25C-4.75,-58.5 -1,-69.568 0,-79.159" style="fill:rgb(241,175,78);fill-rule:nonzero;"/>
                </g>
                <g transform="matrix(1,0,0,1,-359.185759,-143.5402)">
                    <path d="M-135.167,-50.475C-135.167,-50.475 -109.667,-56.142 -78.667,-45.642C-47.667,-35.142 -39.334,-11.642 -39.334,-11.642C-39.334,-11.642 -31,-35.142 0,-45.642C31,-56.142 56.5,-50.475 56.5,-50.475C56.5,-50.475 22.889,-37.223 2.666,-5.476C-12.834,18.858 -19,20.524 -39.334,84.024C-59.667,20.524 -65.834,18.858 -81.334,-5.476C-101.556,-37.223 -135.167,-50.475 -135.167,-50.475Z" style="fill:rgb(241,175,78);"/>
                </g>
                <g transform="matrix(1,0,0,1,-372.019659,-85.1827)">
                    <path d="M0,-83.166C-13.984,-71.853 -21.965,-58.653 -26.5,-47.857C-31.033,-58.653 -39.016,-71.853 -53,-83.166C-82.666,-107.166 -112.5,-108.833 -122.333,-108.833C-122.333,-108.833 -88.722,-95.58 -68.5,-63.833C-53,-39.499 -46.833,-37.833 -26.5,25.667C-6.166,-37.833 0,-39.499 15.5,-63.833C35.723,-95.58 69.334,-108.833 69.334,-108.833C59.5,-108.833 29.667,-107.166 0,-83.166" style="fill:rgb(217,129,45);fill-rule:nonzero;"/>
                </g>
                <g transform="matrix(1,0,0,1,-306.349759,-101.0966)">
                    <path d="M-21.465,14.901C-25.367,17.384 -58.363,34.238 -78.231,51.09C-78.231,51.09 -77.756,47.234 -76.499,41.055C-75.033,33.848 -72.502,23.478 -68.414,12.349C-54.561,-8.999 -36.423,-27.048 0,-43.285C26.038,-54.892 56.078,-53.554 76.358,-50.5C92.954,-44.629 104.132,-36.899 104.132,-36.899C104.132,-36.899 53.135,-38.75 23.062,-17.917C-8.692,4.08 -17.562,12.417 -21.465,14.901Z" style="fill:rgb(217,129,45);"/>
                </g>
                <g transform="matrix(1,0,0,1,-382.848759,-104.899)">
                    <path d="M0,44.857C5.468,34.97 10.368,30.741 27.006,15.244C49.003,-5.245 76.499,-10.035 76.499,-10.035C69.936,-5.777 56.453,9.301 55.034,18.704C51.132,21.187 18.136,38.04 -1.732,54.892C-1.732,54.892 -1.257,51.036 0,44.857" style="fill:rgb(129,64,29);fill-rule:nonzero;"/>
                </g>
                <g transform="matrix(1,0,0,1,-175.917159,-57.1036)">
                    <path d="M0,46.916C-5.143,52.009 -8.479,53.124 -10.335,52.687C-13.352,51.978 -16.544,46.833 -21.512,43.641C-26.479,40.447 -30.381,39.383 -30.381,39.383C-30.381,39.383 -20.27,29.981 -20.27,9.935C-20.27,9.935 -31.801,14.193 -43.331,12.419C-43.331,12.419 -35.703,7.807 -30.559,3.372C-25.414,-1.063 -17.432,-6.208 -9.626,-3.724C-1.82,-1.241 2.792,9.048 2.792,9.048C5.409,20.724 2.771,35.936 0,46.916" style="fill:rgb(129,64,29);fill-rule:nonzero;"/>
                </g>
                <g transform="matrix(1,0,0,1,-255.614459,-30.5874)">
                    <path d="M0,-60.043C12.772,-66.429 41.865,-80.443 77.699,-65.365C87.716,-61.15 94.084,-53.997 98.065,-45.877C103.656,-27.906 101.688,-9.266 91.536,5.594C86.829,12.484 82.911,17.217 79.697,20.4C82.469,9.419 85.106,-5.792 82.489,-17.468C82.489,-17.468 81.603,-41.949 66.169,-50.818C50.735,-59.688 39.621,-60.22 20.432,-46.916C1.242,-33.611 -1.419,-28.928 -1.419,-28.928C-1.419,-28.928 -14.105,-40.466 -24.32,-42.354C-17.173,-48.482 -7.289,-56.398 0,-60.043" style="fill:rgb(217,129,45);fill-rule:nonzero;"/>
                </g>
                <g transform="matrix(1,0,0,1,-164.944459,50.5222)">
                    <path d="M0,-40.26C0,-40.26 4.585,-38.294 10.899,-34.816C18.882,-17.943 28.791,0 28.791,0C28.791,0 14.747,-12.406 0,-40.26" style="fill:rgb(129,64,29);fill-rule:nonzero;"/>
                </g>
                <g transform="matrix(1,0,0,1,-202.217959,92.8892)">
                    <path d="M0,-69.753C12.349,-55.475 42.189,-28.088 62.788,-16.151C83.386,-4.213 107.027,14.981 115.22,47.048C115.22,47.048 93.919,18.258 71.214,5.618C48.509,-7.022 23.932,-19.428 1.695,-52.666C-20.542,-85.904 -43.247,-116.801 -43.247,-116.801C-33.884,-108.609 -12.35,-84.031 0,-69.753" style="fill:rgb(129,64,29);fill-rule:nonzero;"/>
                </g>
                <g transform="matrix(1,0,0,1,-144.392759,185.3223)">
                    <path d="M0,-26.504C-22.428,-56.288 -41.858,-83.41 -53.425,-106.248C-43.364,-96.252 -32.048,-88.352 -8.364,-69.372C29.679,-38.883 42.09,-10.553 42.63,23.713C42.996,47.003 34.144,68.411 28.432,79.744C32.916,55.275 29.013,12.026 0,-26.504" style="fill:rgb(217,129,45);fill-rule:nonzero;"/>
                </g>
                <g transform="matrix(1,0,0,1,-216.270659,409.1515)">
                    <path d="M0,-199.26C22.959,-164.625 38.625,-121.617 30.418,-85C16.749,-24.017 -28.582,0 -28.582,0C-27.179,-3.241 -26.078,-6.581 -25.209,-9.922C-19.143,-20.205 -13.035,-31.792 -7.915,-44C7.539,-80.853 22.461,-125.279 0,-199.26" style="fill:rgb(217,129,45);fill-rule:nonzero;"/>
                </g>
                <g transform="matrix(1,0,0,1,-326.519659,414.5913)">
                    <path d="M0,-12.44C0,-12.44 -11,6.56 -16.333,26.227C-16.333,26.227 13,2.893 30,-14.773C47,-32.44 76.667,-61.357 85.667,-97.398C85.667,-97.398 91.726,-77.929 76.422,-35.698C52.896,0.776 15.637,28.384 -12.381,45.227C-31.979,57.008 -49.483,73.568 -60.376,84.958C-57.12,72.173 -51.021,56.136 -40,36.893C-19,0.227 0,-12.44 0,-12.44" style="fill:rgb(217,129,45);fill-rule:nonzero;"/>
                </g>
                <g transform="matrix(1,0,0,1,-320.242359,53.8722)">
                    <path d="M0,-2.404C0,-2.404 -6.108,3.103 -6.909,4.906C-7.71,6.708 0.602,12.617 9.213,10.614C17.824,8.611 27.612,-0.933 21.129,-12.818C19.928,-15.021 16.623,-13.82 14.82,-12.818C13.018,-11.817 14.02,-9.478 14.02,-5.609C14.02,-1.518 11.216,3.003 5.407,2.403C-0.4,1.802 0,-2.404 0,-2.404" style="fill:rgb(217,129,45);fill-rule:nonzero;"/>
                </g>
                <g transform="matrix(1,0,0,1,-479.019659,246.5681)">
                    <path d="M0,-79.159C0,-79.159 6.25,-71.25 21,-60.75C35.75,-50.25 49.25,-47 54.5,-35.5C59.75,-24 58,-21.75 47.75,-14.5C37.5,-7.25 25.75,-4 15.5,-2C5.25,0 -8.981,-2 -15.615,-10.75C-15.615,-10.75 -1.25,-8.75 13.5,-13.5C28.25,-18.25 29.5,-21.5 29.5,-24.5C29.5,-27.5 29,-23 13.75,-28.25C-1.5,-33.5 -8.873,-37.5 -8.873,-37.5C-8.873,-37.5 6.75,-35 15.5,-36C24.25,-37 28.25,-36.947 28.5,-40.223C28.75,-43.5 17.25,-46 11,-52.25C4.75,-58.5 1,-69.568 0,-79.159" style="fill:rgb(241,175,78);fill-rule:nonzero;"/>
                </g>
                <g transform="matrix(1,0,0,1,-549.769659,161.0678)">
                    <path d="M0,-104C0,-104 -5.228,-82.798 -1.25,-66C3.258,-46.968 8.52,-37.845 13.701,-30.621C16.623,-27.918 19.327,-25.357 21.5,-22.75C31.5,-10.75 37,0 37,0C37,0 47.75,-21.75 53.75,-30C54.193,-30.608 54.659,-31.214 55.135,-31.818C49.358,-34.312 38.243,-39.715 29.75,-47.5C17.75,-58.5 2.25,-67.5 0,-104" style="fill:rgb(129,64,29);fill-rule:nonzero;"/>
                </g>
                <g transform="matrix(1,0,0,1,-247.269659,161.0678)">
                    <path d="M0,-104C0,-104 5.229,-82.798 1.25,-66C-3.257,-46.968 -8.519,-37.845 -13.7,-30.621C-16.622,-27.918 -19.327,-25.357 -21.5,-22.75C-31.5,-10.75 -37,0 -37,0C-37,0 -47.75,-21.75 -53.75,-30C-54.192,-30.608 -54.658,-31.214 -55.134,-31.818C-49.357,-34.312 -38.242,-39.715 -29.75,-47.5C-17.75,-58.5 -2.25,-67.5 0,-104" style="fill:rgb(129,64,29);fill-rule:nonzero;"/>
                </g>
                <g transform="matrix(1,0,0,1,-301.769659,112.3178)">
                    <path d="M0,-115.5C5,-118 16,-116.75 16,-116.75C10,-137.75 -12,-151.5 -26.25,-154C-40.5,-156.5 -55.75,-145.25 -79.75,-128.5C-88.498,-122.395 -93.681,-114.896 -96.75,-107.829C-99.818,-114.896 -105.002,-122.395 -113.75,-128.5C-137.75,-145.25 -153,-156.5 -167.25,-154C-181.5,-151.5 -203.5,-137.75 -209.5,-116.75C-209.5,-116.75 -198.5,-118 -193.5,-115.5C-193.5,-115.5 -217.75,-111.25 -226.75,-97C-226.75,-97 -210.25,-98.75 -192.25,-96C-174.25,-93.25 -164,-82.5 -151.75,-81.75C-139.5,-81 -134.25,-90 -136.75,-114C-136.75,-114 -119.067,-94.5 -118.283,-72.5C-117.5,-50.5 -122.75,-40.5 -134.75,-14.25C-144.95,8.064 -148.104,19.906 -149.436,40.307C-144.887,38.637 -139.486,36.294 -130,36.5C-118.5,36.75 -112.25,41 -96.75,41C-81.25,41 -75,36.75 -63.5,36.5C-54.014,36.294 -48.611,38.637 -44.063,40.307C-45.395,19.906 -48.549,8.064 -58.75,-14.25C-70.75,-40.5 -76,-50.5 -75.216,-72.5C-74.432,-94.5 -56.75,-114 -56.75,-114C-59.25,-90 -54,-81 -41.75,-81.75C-29.5,-82.5 -19.25,-93.25 -1.25,-96C16.75,-98.75 33.25,-97 33.25,-97C24.25,-111.25 0,-115.5 0,-115.5" style="fill:rgb(241,175,78);fill-rule:nonzero;"/>
                </g>
                <g transform="matrix(1,0,0,1,-642.662259,249.2376)">
                    <path d="M0,-1.349C0.81,-43.44 24.283,-73.928 24.283,-73.928C24.283,-73.928 16.458,-64.755 6.856,-57.74C-2.745,-50.725 -12.142,-39.932 -17.808,-23.474C-25.362,26.441 10.253,72.579 10.253,72.579C2.429,59.089 -0.81,40.741 0,-1.349" style="fill:rgb(217,129,45);fill-rule:nonzero;"/>
                </g>
                <g transform="matrix(-1,0,0,1,-153.714932,249.621907)">
                    <path d="M0.661,-1.734C1.471,-43.825 24.944,-74.313 24.944,-74.313C24.944,-74.313 17.119,-65.14 7.517,-58.125C-2.084,-51.11 -11.481,-40.317 -17.147,-23.859C-24.701,26.056 10.914,72.194 10.914,72.194C3.09,58.704 -0.149,40.356 0.661,-1.734" style="fill:rgb(217,129,45);fill-rule:nonzero;"/>
                </g>
                <g transform="matrix(1,0,0,1,-652.645659,185.3223)">
                    <path d="M0,-26.504C22.427,-56.288 41.858,-83.41 53.425,-106.248C43.364,-96.252 32.048,-88.352 8.364,-69.372C-29.679,-38.883 -42.09,-10.553 -42.63,23.713C-42.996,47.003 -34.144,68.411 -28.432,79.744C-32.916,55.275 -29.013,12.026 0,-26.504" style="fill:rgb(217,129,45);fill-rule:nonzero;"/>
                </g>
                <g transform="matrix(1,0,0,1,-632.093859,50.5222)">
                    <path d="M0,-40.26C0,-40.26 -4.586,-38.294 -10.9,-34.816C-18.882,-17.943 -28.791,0 -28.791,0C-28.791,0 -14.747,-12.406 0,-40.26" style="fill:rgb(129,64,29);fill-rule:nonzero;"/>
                </g>
            </g>
        </g>
    </g>
</svg>
