<?xml version="1.0" encoding="UTF-8" standalone="no"?>
<!DOCTYPE svg PUBLIC "-//W3C//DTD SVG 1.1//EN" "http://www.w3.org/Graphics/SVG/1.1/DTD/svg11.dtd">
<svg width="100%" height="100%" viewBox="0 0 79 31" version="1.1" xmlns="http://www.w3.org/2000/svg" xmlns:xlink="http://www.w3.org/1999/xlink" xml:space="preserve" xmlns:serif="http://www.serif.com/" style="fill-rule:evenodd;clip-rule:evenodd;stroke-linejoin:round;stroke-miterlimit:2;">
    <g transform="matrix(1,0,0,1,-1412.594937,-0.240181)">
        <g id="brand-text" transform="matrix(1,0,0,1,0.594937,0.240181)">
            <rect x="1412" y="-0" width="78.252" height="30.739" style="fill:none;"/>
            <g transform="matrix(0.078125,0,0,0.055556,1122.943122,-24.622456)">
                <g transform="matrix(12.8,0,0,18,-29866.62609,705.749176)">
                    <path d="M2699.132,7.404L2700.639,7.404L2698.78,11.428L2698.78,12.928C2698.78,13.808 2698.816,14.732 2698.889,15.701L2697.475,15.701L2697.319,14.467C2696.548,15.415 2695.647,15.888 2694.616,15.888C2694.027,15.888 2693.535,15.748 2693.139,15.467C2692.744,15.185 2692.43,14.81 2692.198,14.342C2691.966,13.873 2691.85,13.261 2691.85,12.506C2691.85,11.037 2692.257,9.788 2693.069,8.76C2693.882,7.731 2694.853,7.217 2695.983,7.217C2697.061,7.217 2697.879,7.782 2698.436,8.912L2699.132,7.404ZM2693.249,12.615C2693.249,13.329 2693.41,13.86 2693.733,14.209C2694.056,14.558 2694.457,14.732 2694.936,14.732C2695.723,14.732 2696.396,14.29 2696.956,13.404C2697.516,12.519 2697.796,11.56 2697.796,10.529C2697.796,9.915 2697.646,9.403 2697.346,8.994C2697.047,8.585 2696.629,8.381 2696.092,8.381C2695.27,8.381 2694.59,8.832 2694.053,9.736C2693.517,10.64 2693.249,11.599 2693.249,12.615Z" style="fill:rgb(217,129,45);fill-rule:nonzero;"/>
                </g>
                <g transform="matrix(9.020614,0,0,12.685238,-3549.148572,-528.539342)">
                    <path d="M808.265,92.073L811.194,76.956L807.28,76.956L803.612,95.846L814.698,95.846L815.437,92.073L808.265,92.073Z" style="fill-rule:nonzero;"/>
                    <path d="M830.718,80.694L831.444,76.956L820.511,76.956L816.843,95.846L827.776,95.846L828.515,92.073L821.483,92.073L822.233,88.171L828.21,88.171L828.948,84.386L822.972,84.386L823.687,80.694L830.718,80.694Z" style="fill-rule:nonzero;"/>
                    <path d="M838.874,96.268C844.171,96.538 848.858,92.448 849.714,86.589C850.522,81.057 847.499,76.932 842.425,76.675C837.105,76.405 832.429,80.553 831.597,86.436C830.812,91.956 833.858,96.011 838.874,96.268ZM839.565,92.46C836.694,92.401 834.925,89.811 835.499,86.448C836.085,82.979 838.862,80.401 841.722,80.46C844.534,80.507 846.409,83.073 845.812,86.518C845.226,89.882 842.519,92.53 839.565,92.46Z" style="fill-rule:nonzero;"/>
                    <path d="M864.749,76.909L862.698,87.432L854.483,76.604L854.132,76.604L850.382,95.87L854.272,95.87L856.312,85.335L864.55,96.198L864.89,96.198L868.64,76.909L864.749,76.909Z" style="fill-rule:nonzero;"/>
                    <path d="M872.343,95.846L876.222,95.846L877.792,87.737L885.374,76.956L880.769,76.956L876.433,83.518L874.581,76.956L870.526,76.956L873.913,87.737L872.343,95.846Z" style="fill-rule:nonzero;"/>
                    <path d="M803.612,119.846L807.515,119.846L811.183,100.956L807.28,100.956L803.612,119.846Z" style="fill-rule:nonzero;"/>
                    <path d="M825.163,100.909L823.112,111.432L814.897,100.604L814.546,100.604L810.796,119.87L814.687,119.87L816.726,109.335L824.964,120.198L825.304,120.198L829.054,100.909L825.163,100.909Z" style="fill-rule:nonzero;"/>
                    <path d="M834.62,120.221C838.394,120.221 841.054,117.971 841.64,114.901C842.108,112.487 841.101,110.694 838.136,108.901C836.624,107.987 835.159,107.389 835.37,106.053C835.511,105.116 836.413,104.284 837.55,104.284C838.64,104.284 839.706,104.94 840.022,106.124L843.093,104.026C842.601,102.069 840.608,100.557 838.077,100.557C834.925,100.557 832.194,102.456 831.632,105.257C830.987,108.468 832.874,110.026 834.702,111.163C836.026,111.983 838.054,113.096 837.784,114.655C837.573,115.827 836.237,116.401 835.147,116.401C833.741,116.401 832.394,115.604 831.491,113.987L828.409,116.096C829.241,118.487 831.491,120.221 834.62,120.221Z" style="fill-rule:nonzero;"/>
                    <path d="M842.987,119.846L846.89,119.846L850.558,100.956L846.655,100.956L842.987,119.846Z" style="fill-rule:nonzero;"/>
                    <path d="M860.952,109.241L860.272,112.745L864.573,112.745C864.175,113.729 862.476,116.401 859.452,116.401C856.569,116.401 854.437,114.011 855.093,110.425C855.749,106.815 858.784,104.413 861.515,104.413C863.331,104.413 864.48,105.479 865.534,107.026L868.23,103.874C866.976,102.069 864.796,100.604 862.487,100.569C856.64,100.569 852.105,104.624 851.19,110.425C850.3,116.05 853.347,120.221 858.925,120.221C864.245,120.221 868.253,116.436 869.284,110.835C869.331,110.577 869.425,110.038 869.483,109.241L860.952,109.241Z" style="fill-rule:nonzero;"/>
                    <path d="M883.558,100.956L882.093,108.514L876.105,108.514L877.569,100.956L873.667,100.956L869.999,119.846L873.901,119.846L875.366,112.276L881.355,112.276L879.89,119.846L883.792,119.846L887.46,100.956L883.558,100.956Z" style="fill-rule:nonzero;"/>
                    <path d="M902.179,100.956L889.605,100.956L888.878,104.718L893.214,104.718L890.272,119.846L894.187,119.846L897.128,104.718L901.452,104.718L902.179,100.956Z" style="fill-rule:nonzero;"/>
                </g>
            </g>
        </g>
    </g>
</svg>
