<?xml version="1.0" encoding="UTF-8" standalone="no"?>
<!DOCTYPE svg PUBLIC "-//W3C//DTD SVG 1.1//EN" "http://www.w3.org/Graphics/SVG/1.1/DTD/svg11.dtd">
<svg width="100%" height="100%" viewBox="0 0 79 31" version="1.1" xmlns="http://www.w3.org/2000/svg" xmlns:xlink="http://www.w3.org/1999/xlink" xml:space="preserve" xmlns:serif="http://www.serif.com/" style="fill-rule:evenodd;clip-rule:evenodd;stroke-linejoin:round;stroke-miterlimit:2;">
    <g transform="matrix(1,0,0,1,-1412.989473,-0.240181)">
        <g id="brand-text" transform="matrix(1,0,0,1,-1528.090011,-8.767911)">
            <rect x="2941.079" y="9.008" width="78.397" height="30.554" style="fill:none;"/>
            <clipPath id="_clip1">
                <rect x="2941.079" y="9.008" width="78.397" height="30.554"/>
            </clipPath>
            <g clip-path="url(#_clip1)">
                <g transform="matrix(1.059299,0,0,1.059299,86.138173,-43.582955)">
                    <path d="M2698.3,59.733L2700.253,49.655L2697.644,49.655L2695.198,62.248L2702.589,62.248L2703.081,59.733L2698.3,59.733Z" style="fill-rule:nonzero;"/>
                    <path d="M2713.269,52.147L2713.753,49.655L2706.464,49.655L2704.019,62.248L2711.308,62.248L2711.8,59.733L2707.112,59.733L2707.612,57.131L2711.597,57.131L2712.089,54.608L2708.105,54.608L2708.581,52.147L2713.269,52.147Z" style="fill-rule:nonzero;"/>
                    <path d="M2718.706,62.53C2722.237,62.709 2725.362,59.983 2725.933,56.077C2726.472,52.389 2724.456,49.639 2721.073,49.467C2717.526,49.287 2714.409,52.053 2713.855,55.975C2713.331,59.655 2715.362,62.358 2718.706,62.53ZM2719.167,59.991C2717.253,59.952 2716.073,58.225 2716.456,55.983C2716.847,53.67 2718.698,51.952 2720.605,51.991C2722.48,52.022 2723.73,53.733 2723.331,56.03C2722.941,58.272 2721.136,60.037 2719.167,59.991Z" style="fill-rule:nonzero;"/>
                    <path d="M2735.956,49.623L2734.589,56.639L2729.112,49.42L2728.878,49.42L2726.378,62.264L2728.972,62.264L2730.331,55.241L2735.823,62.483L2736.05,62.483L2738.55,49.623L2735.956,49.623Z" style="fill-rule:nonzero;"/>
                    <path d="M2741.019,62.248L2743.605,62.248L2744.651,56.842L2749.706,49.655L2746.636,49.655L2743.745,54.03L2742.511,49.655L2739.808,49.655L2742.066,56.842L2741.019,62.248Z" style="fill-rule:nonzero;"/>
                    <path d="M2695.198,78.248L2697.8,78.248L2700.245,65.655L2697.644,65.655L2695.198,78.248Z" style="fill-rule:nonzero;"/>
                    <path d="M2709.566,65.623L2708.198,72.639L2702.722,65.42L2702.487,65.42L2699.987,78.264L2702.581,78.264L2703.941,71.241L2709.433,78.483L2709.659,78.483L2712.159,65.623L2709.566,65.623Z" style="fill-rule:nonzero;"/>
                    <path d="M2715.87,78.498C2718.386,78.498 2720.159,76.998 2720.55,74.952C2720.862,73.342 2720.191,72.147 2718.214,70.952C2717.206,70.342 2716.23,69.944 2716.37,69.053C2716.464,68.428 2717.066,67.873 2717.823,67.873C2718.55,67.873 2719.261,68.311 2719.472,69.1L2721.519,67.702C2721.191,66.397 2719.862,65.389 2718.175,65.389C2716.073,65.389 2714.253,66.655 2713.878,68.522C2713.448,70.662 2714.706,71.702 2715.925,72.459C2716.808,73.006 2718.159,73.748 2717.98,74.787C2717.839,75.569 2716.948,75.952 2716.222,75.952C2715.284,75.952 2714.386,75.42 2713.784,74.342L2711.73,75.748C2712.284,77.342 2713.784,78.498 2715.87,78.498Z" style="fill-rule:nonzero;"/>
                    <path d="M2721.448,78.248L2724.05,78.248L2726.495,65.655L2723.894,65.655L2721.448,78.248Z" style="fill-rule:nonzero;"/>
                    <path d="M2733.425,71.178L2732.972,73.514L2735.839,73.514C2735.573,74.17 2734.441,75.952 2732.425,75.952C2730.503,75.952 2729.081,74.358 2729.519,71.967C2729.956,69.561 2731.98,67.959 2733.8,67.959C2735.011,67.959 2735.776,68.67 2736.48,69.702L2738.276,67.6C2737.441,66.397 2735.987,65.42 2734.448,65.397C2730.55,65.397 2727.526,68.1 2726.917,71.967C2726.323,75.717 2728.355,78.498 2732.073,78.498C2735.62,78.498 2738.292,75.975 2738.98,72.241C2739.011,72.069 2739.073,71.709 2739.112,71.178L2733.425,71.178Z" style="fill-rule:nonzero;"/>
                    <path d="M2748.495,65.655L2747.519,70.694L2743.526,70.694L2744.503,65.655L2741.901,65.655L2739.456,78.248L2742.058,78.248L2743.034,73.202L2747.026,73.202L2746.05,78.248L2748.651,78.248L2751.097,65.655L2748.495,65.655Z" style="fill-rule:nonzero;"/>
                    <path d="M2760.909,65.655L2752.526,65.655L2752.042,68.162L2754.933,68.162L2752.972,78.248L2755.581,78.248L2757.542,68.162L2760.425,68.162L2760.909,65.655Z" style="fill-rule:nonzero;"/>
                    <g transform="matrix(0.944021,0,0,0.944021,219.747254,63.499374)">
                        <path d="M2699.132,7.404L2700.639,7.404L2698.78,11.428L2698.78,12.928C2698.78,13.808 2698.816,14.732 2698.889,15.701L2697.475,15.701L2697.319,14.467C2696.548,15.415 2695.647,15.888 2694.616,15.888C2694.027,15.888 2693.535,15.748 2693.139,15.467C2692.744,15.185 2692.43,14.81 2692.198,14.342C2691.966,13.873 2691.85,13.261 2691.85,12.506C2691.85,11.037 2692.257,9.788 2693.069,8.76C2693.882,7.731 2694.853,7.217 2695.983,7.217C2697.061,7.217 2697.879,7.782 2698.436,8.912L2699.132,7.404ZM2693.249,12.615C2693.249,13.329 2693.41,13.86 2693.733,14.209C2694.056,14.558 2694.457,14.732 2694.936,14.732C2695.723,14.732 2696.396,14.29 2696.956,13.404C2697.516,12.519 2697.796,11.56 2697.796,10.529C2697.796,9.915 2697.646,9.403 2697.346,8.994C2697.047,8.585 2696.629,8.381 2696.092,8.381C2695.27,8.381 2694.59,8.832 2694.053,9.736C2693.517,10.64 2693.249,11.599 2693.249,12.615Z" style="fill:rgb(217,129,45);fill-rule:nonzero;"/>
                    </g>
                </g>
            </g>
        </g>
    </g>
</svg>
